<svg xmlns="http://www.w3.org/2000/svg" xmlns:xlink="http://www.w3.org/1999/xlink" width="500" zoomAndPan="magnify" viewBox="0 0 375 374.999991" height="500" preserveAspectRatio="xMidYMid meet" version="1.0"><defs><g/><clipPath id="107aefcff7"><path d="M 7.265625 216.550781 L 122.261719 216.550781 L 122.261719 229.335938 L 7.265625 229.335938 Z M 7.265625 216.550781 " clip-rule="nonzero"/></clipPath><clipPath id="043367f270"><path d="M 133.480469 143.871094 L 248.476562 143.871094 L 248.476562 156.65625 L 133.480469 156.65625 Z M 133.480469 143.871094 " clip-rule="nonzero"/></clipPath></defs><g clip-path="url(#107aefcff7)"><path fill="#000000" d="M 7.265625 216.550781 L 122.253906 216.550781 L 122.253906 229.335938 L 7.265625 229.335938 Z M 7.265625 216.550781 " fill-opacity="1" fill-rule="nonzero"/></g><g clip-path="url(#043367f270)"><path fill="#000000" d="M 133.480469 143.871094 L 248.46875 143.871094 L 248.46875 156.65625 L 133.480469 156.65625 Z M 133.480469 143.871094 " fill-opacity="1" fill-rule="nonzero"/></g><g fill="#000000" fill-opacity="1"><g transform="translate(4.789269, 205.693448)"><g><path d="M 2.78125 0 L 2.78125 -11.171875 L 10.5 -11.171875 C 13.695312 -11.171875 15.929688 -11.929688 17.203125 -13.453125 C 18.484375 -14.984375 19.125 -17.195312 19.125 -20.09375 L 19.125 -52.5 L 31.125 -52.5 L 31.125 -19.203125 C 31.125 -13.148438 29.445312 -8.4375 26.09375 -5.0625 C 22.75 -1.6875 17.800781 0 11.25 0 Z M 2.78125 0 "/></g></g></g><g fill="#000000" fill-opacity="1"><g transform="translate(57.589227, 205.693448)"><g><path d="M 31.203125 1.046875 C 25.753906 1.046875 20.914062 -0.113281 16.6875 -2.4375 C 12.457031 -4.757812 9.15625 -7.96875 6.78125 -12.0625 C 4.40625 -16.164062 3.21875 -20.894531 3.21875 -26.25 C 3.21875 -31.601562 4.40625 -36.328125 6.78125 -40.421875 C 9.15625 -44.523438 12.457031 -47.738281 16.6875 -50.0625 C 20.914062 -52.382812 25.753906 -53.546875 31.203125 -53.546875 C 36.703125 -53.546875 41.550781 -52.382812 45.75 -50.0625 C 49.945312 -47.738281 53.242188 -44.523438 55.640625 -40.421875 C 58.046875 -36.328125 59.25 -31.601562 59.25 -26.25 C 59.25 -20.894531 58.046875 -16.164062 55.640625 -12.0625 C 53.242188 -7.96875 49.945312 -4.757812 45.75 -2.4375 C 41.550781 -0.113281 36.703125 1.046875 31.203125 1.046875 Z M 15.375 -26.25 C 15.375 -23.101562 16.046875 -20.328125 17.390625 -17.921875 C 18.742188 -15.523438 20.609375 -13.648438 22.984375 -12.296875 C 25.359375 -10.953125 28.097656 -10.28125 31.203125 -10.28125 C 34.347656 -10.28125 37.109375 -10.953125 39.484375 -12.296875 C 41.859375 -13.648438 43.707031 -15.523438 45.03125 -17.921875 C 46.363281 -20.328125 47.03125 -23.101562 47.03125 -26.25 C 47.03125 -29.394531 46.363281 -32.164062 45.03125 -34.5625 C 43.707031 -36.96875 41.859375 -38.84375 39.484375 -40.1875 C 37.109375 -41.539062 34.347656 -42.21875 31.203125 -42.21875 C 28.097656 -42.21875 25.359375 -41.539062 22.984375 -40.1875 C 20.609375 -38.84375 18.742188 -36.96875 17.390625 -34.5625 C 16.046875 -32.164062 15.375 -29.394531 15.375 -26.25 Z M 15.375 -26.25 "/></g></g></g><g fill="#000000" fill-opacity="1"><g transform="translate(132.366221, 228.657422)"><g><path d="M 20.03125 0 L 20.03125 -18.375 L 0.671875 -52.5 L 14.25 -52.5 L 20.78125 -40.34375 L 26.03125 -30.828125 L 31.203125 -40.34375 L 37.65625 -52.5 L 51.21875 -52.5 L 31.953125 -18.53125 L 31.953125 0 Z M 20.03125 0 "/></g></g></g><g fill="#000000" fill-opacity="1"><g transform="translate(199.791166, 228.657422)"><g><path d="M 6.296875 0 L 6.296875 -52.5 L 39.21875 -52.5 L 39.21875 -41.703125 L 18.21875 -41.703125 L 18.21875 -28.578125 L 37.28125 -28.578125 L 37.28125 -18.078125 L 18.21875 -18.078125 L 18.21875 0 Z M 6.296875 0 "/></g></g></g><g fill="#000000" fill-opacity="1"><g transform="translate(257.841123, 228.657422)"><g><path d="M 27.75 1.046875 C 23.195312 1.046875 19.28125 0.132812 16 -1.6875 C 12.726562 -3.507812 10.207031 -6.109375 8.4375 -9.484375 C 6.664062 -12.859375 5.78125 -16.894531 5.78125 -21.59375 L 5.78125 -52.5 L 17.703125 -52.5 L 17.703125 -22.421875 C 17.703125 -14.328125 21.050781 -10.28125 27.75 -10.28125 C 34.445312 -10.28125 37.796875 -14.328125 37.796875 -22.421875 L 37.796875 -52.5 L 49.71875 -52.5 L 49.71875 -21.59375 C 49.71875 -16.894531 48.832031 -12.859375 47.0625 -9.484375 C 45.289062 -6.109375 42.765625 -3.507812 39.484375 -1.6875 C 36.210938 0.132812 32.300781 1.046875 27.75 1.046875 Z M 27.75 1.046875 "/></g></g></g><g fill="#000000" fill-opacity="1"><g transform="translate(328.866071, 228.657422)"><g><path d="M 6.296875 0 L 6.296875 -52.5 L 18.21875 -52.5 L 18.21875 -11.171875 L 41.171875 -11.171875 L 41.171875 0 Z M 6.296875 0 "/></g></g></g><g fill="#000000" fill-opacity="1"><g transform="translate(5.054064, 267.337394)"><g><path d="M 3.359375 0 L 3.359375 -28 L 8.765625 -28 L 18.71875 -13.484375 L 28.640625 -28 L 34 -28 L 34 0 L 27.6875 0 L 27.6875 -16.84375 L 20.875 -6.921875 L 16.484375 -6.921875 L 9.6875 -16.875 L 9.6875 0 Z M 3.359375 0 "/></g></g></g><g fill="#000000" fill-opacity="1"><g transform="translate(50.690341, 267.337394)"><g><path d="M 16.640625 0.5625 C 13.734375 0.5625 11.148438 -0.0546875 8.890625 -1.296875 C 6.640625 -2.535156 4.878906 -4.25 3.609375 -6.4375 C 2.347656 -8.625 1.71875 -11.144531 1.71875 -14 C 1.71875 -16.851562 2.347656 -19.375 3.609375 -21.5625 C 4.878906 -23.75 6.640625 -25.460938 8.890625 -26.703125 C 11.148438 -27.941406 13.734375 -28.5625 16.640625 -28.5625 C 19.578125 -28.5625 22.164062 -27.941406 24.40625 -26.703125 C 26.644531 -25.460938 28.398438 -23.75 29.671875 -21.5625 C 30.953125 -19.375 31.59375 -16.851562 31.59375 -14 C 31.59375 -11.144531 30.953125 -8.625 29.671875 -6.4375 C 28.398438 -4.25 26.644531 -2.535156 24.40625 -1.296875 C 22.164062 -0.0546875 19.578125 0.5625 16.640625 0.5625 Z M 8.203125 -14 C 8.203125 -12.320312 8.5625 -10.84375 9.28125 -9.5625 C 10 -8.28125 10.988281 -7.28125 12.25 -6.5625 C 13.519531 -5.84375 14.984375 -5.484375 16.640625 -5.484375 C 18.316406 -5.484375 19.785156 -5.84375 21.046875 -6.5625 C 22.316406 -7.28125 23.304688 -8.28125 24.015625 -9.5625 C 24.722656 -10.84375 25.078125 -12.320312 25.078125 -14 C 25.078125 -15.675781 24.722656 -17.15625 24.015625 -18.4375 C 23.304688 -19.71875 22.316406 -20.71875 21.046875 -21.4375 C 19.785156 -22.15625 18.316406 -22.515625 16.640625 -22.515625 C 14.984375 -22.515625 13.519531 -22.15625 12.25 -21.4375 C 10.988281 -20.71875 10 -19.71875 9.28125 -18.4375 C 8.5625 -17.15625 8.203125 -15.675781 8.203125 -14 Z M 8.203125 -14 "/></g></g></g><g fill="#000000" fill-opacity="1"><g transform="translate(92.287026, 267.337394)"><g><path d="M 3.359375 0 L 3.359375 -28 L 14.4375 -28 C 17.394531 -28 19.976562 -27.410156 22.1875 -26.234375 C 24.40625 -25.066406 26.128906 -23.425781 27.359375 -21.3125 C 28.585938 -19.207031 29.203125 -16.769531 29.203125 -14 C 29.203125 -11.195312 28.585938 -8.75 27.359375 -6.65625 C 26.128906 -4.5625 24.40625 -2.925781 22.1875 -1.75 C 19.976562 -0.582031 17.394531 0 14.4375 0 Z M 9.71875 -5.84375 L 14.3125 -5.84375 C 15.96875 -5.84375 17.421875 -6.179688 18.671875 -6.859375 C 19.929688 -7.535156 20.914062 -8.488281 21.625 -9.71875 C 22.332031 -10.945312 22.6875 -12.375 22.6875 -14 C 22.6875 -15.65625 22.332031 -17.085938 21.625 -18.296875 C 20.914062 -19.515625 19.925781 -20.460938 18.65625 -21.140625 C 17.394531 -21.816406 15.921875 -22.15625 14.234375 -22.15625 L 9.71875 -22.15625 Z M 9.71875 -5.84375 "/></g></g></g><g fill="#000000" fill-opacity="1"><g transform="translate(131.443956, 267.337394)"><g><path d="M 3.359375 0 L 3.359375 -28 L 21.765625 -28 L 21.765625 -22.640625 L 9.6875 -22.640625 L 9.6875 -16.84375 L 20.6875 -16.84375 L 20.6875 -11.515625 L 9.6875 -11.515625 L 9.6875 -5.40625 L 22.203125 -5.40625 L 22.203125 0 Z M 3.359375 0 "/></g></g></g><g fill="#000000" fill-opacity="1"><g transform="translate(130.900705, 133.994492)"><g><path d="M 10.078125 0 L 10.078125 -22.046875 L 1.203125 -22.046875 L 1.203125 -28 L 25.3125 -28 L 25.3125 -22.046875 L 16.4375 -22.046875 L 16.4375 0 Z M 10.078125 0 "/></g></g></g><g fill="#000000" fill-opacity="1"><g transform="translate(165.698065, 133.994492)"><g><path d="M 20.6875 0 L 20.6875 -11.28125 L 9.71875 -11.28125 L 9.71875 0 L 3.359375 0 L 3.359375 -28 L 9.71875 -28 L 9.71875 -17.234375 L 20.6875 -17.234375 L 20.6875 -28 L 27.046875 -28 L 27.046875 0 Z M 20.6875 0 "/></g></g></g><g fill="#000000" fill-opacity="1"><g transform="translate(204.375042, 133.994492)"><g><path d="M 3.359375 0 L 3.359375 -28 L 21.765625 -28 L 21.765625 -22.640625 L 9.6875 -22.640625 L 9.6875 -16.84375 L 20.6875 -16.84375 L 20.6875 -11.515625 L 9.6875 -11.515625 L 9.6875 -5.40625 L 22.203125 -5.40625 L 22.203125 0 Z M 3.359375 0 "/></g></g></g></svg>